<?xml version="1.0" encoding="UTF-8" standalone="no"?>
<svg
   xmlns:dc="http://purl.org/dc/elements/1.1/"
   xmlns:cc="http://creativecommons.org/ns#"
   xmlns:rdf="http://www.w3.org/1999/02/22-rdf-syntax-ns#"
   xmlns:svg="http://www.w3.org/2000/svg"
   xmlns="http://www.w3.org/2000/svg"
   xmlns:sodipodi="http://sodipodi.sourceforge.net/DTD/sodipodi-0.dtd"
   xmlns:inkscape="http://www.inkscape.org/namespaces/inkscape"
   width="361.81912mm"
   height="84.6455mm"
   viewBox="0 0 361.81912 84.6455"
   version="1.1"
   id="svg1050"
   inkscape:version="1.0.1 (3bc2e813f5, 2020-09-07)"
   sodipodi:docname="hero.svg">
  <defs
     id="defs1044">
    <inkscape:path-effect
       effect="fillet_chamfer"
       id="path-effect1003"
       is_visible="true"
       lpeversion="1"
       satellites_param="F,0,0,1,0,7.4083333,0,1 @ F,0,0,1,0,7.4083333,0,1 @ F,0,0,1,0,7.4083333,0,1 @ F,0,0,1,0,7.4083333,0,1"
       unit="px"
       method="auto"
       mode="F"
       radius="28"
       chamfer_steps="1"
       flexible="false"
       use_knot_distance="true"
       apply_no_radius="true"
       apply_with_radius="true"
       only_selected="false"
       hide_knots="false" />
    <inkscape:path-effect
       effect="fillet_chamfer"
       id="path-effect1005"
       is_visible="true"
       lpeversion="1"
       satellites_param="F,0,0,1,0,7.4083333,0,1 @ F,0,0,1,0,7.4083333,0,1 @ F,0,0,1,0,7.4083333,0,1 @ F,0,0,1,0,7.4083333,0,1"
       unit="px"
       method="auto"
       mode="F"
       radius="28"
       chamfer_steps="1"
       flexible="false"
       use_knot_distance="true"
       apply_no_radius="true"
       apply_with_radius="true"
       only_selected="false"
       hide_knots="false" />
    <inkscape:path-effect
       effect="fillet_chamfer"
       id="path-effect1007"
       is_visible="true"
       lpeversion="1"
       satellites_param="F,0,0,1,0,8.4666667,0,1 @ F,0,0,1,0,8.4666667,0,1 @ F,0,0,1,0,8.4666667,0,1 @ F,0,0,1,0,8.4666667,0,1"
       unit="px"
       method="auto"
       mode="F"
       radius="36"
       chamfer_steps="1"
       flexible="false"
       use_knot_distance="true"
       apply_no_radius="true"
       apply_with_radius="true"
       only_selected="false"
       hide_knots="false" />
    <inkscape:path-effect
       effect="fillet_chamfer"
       id="path-effect1009"
       is_visible="true"
       lpeversion="1"
       satellites_param="F,0,0,1,0,3.175,0,1 @ F,0,0,1,0,3.175,0,1 @ F,0,0,1,0,3.175,0,1"
       unit="px"
       method="auto"
       mode="F"
       radius="9"
       chamfer_steps="1"
       flexible="false"
       use_knot_distance="true"
       apply_no_radius="true"
       apply_with_radius="true"
       only_selected="false"
       hide_knots="false" />
    <inkscape:path-effect
       effect="fillet_chamfer"
       id="path-effect1011"
       is_visible="true"
       lpeversion="1"
       satellites_param="F,0,0,1,0,8.4666667,0,1 @ F,0,0,1,0,8.4666667,0,1 @ F,0,0,1,0,8.4666667,0,1 @ F,0,0,1,0,8.4666667,0,1"
       unit="px"
       method="auto"
       mode="F"
       radius="36"
       chamfer_steps="1"
       flexible="false"
       use_knot_distance="true"
       apply_no_radius="true"
       apply_with_radius="true"
       only_selected="false"
       hide_knots="false" />
    <inkscape:path-effect
       effect="fillet_chamfer"
       id="path-effect1013"
       is_visible="true"
       lpeversion="1"
       satellites_param="F,0,0,1,0,7.4083333,0,1 @ F,0,0,1,0,7.4083333,0,1 @ F,0,0,1,0,7.4083333,0,1 @ F,0,0,1,0,7.4083333,0,1"
       unit="px"
       method="auto"
       mode="F"
       radius="28"
       chamfer_steps="1"
       flexible="false"
       use_knot_distance="true"
       apply_no_radius="true"
       apply_with_radius="true"
       only_selected="false"
       hide_knots="false" />
    <inkscape:path-effect
       effect="fillet_chamfer"
       id="path-effect1015"
       is_visible="true"
       lpeversion="1"
       satellites_param="F,0,0,1,0,8.4666667,0,1 @ F,0,0,1,0,8.4666667,0,1 @ F,0,0,1,0,8.4666667,0,1 @ F,0,0,1,0,8.4666667,0,1"
       unit="px"
       method="auto"
       mode="F"
       radius="36"
       chamfer_steps="1"
       flexible="false"
       use_knot_distance="true"
       apply_no_radius="true"
       apply_with_radius="true"
       only_selected="false"
       hide_knots="false" />
    <inkscape:path-effect
       effect="fillet_chamfer"
       id="path-effect1017"
       is_visible="true"
       lpeversion="1"
       satellites_param="F,0,0,1,0,3.175,0,1 @ F,0,0,1,0,3.175,0,1 @ F,0,0,1,0,3.175,0,1"
       unit="px"
       method="auto"
       mode="F"
       radius="8"
       chamfer_steps="1"
       flexible="false"
       use_knot_distance="true"
       apply_no_radius="true"
       apply_with_radius="true"
       only_selected="false"
       hide_knots="false" />
  </defs>
  <sodipodi:namedview
     id="base"
     pagecolor="#ffffff"
     bordercolor="#666666"
     borderopacity="1.0"
     inkscape:pageopacity="0.0"
     inkscape:pageshadow="2"
     inkscape:zoom="0.49497475"
     inkscape:cx="458.72338"
     inkscape:cy="141.59886"
     inkscape:document-units="mm"
     inkscape:current-layer="layer1"
     inkscape:document-rotation="0"
     showgrid="false"
     inkscape:window-width="1920"
     inkscape:window-height="986"
     inkscape:window-x="-11"
     inkscape:window-y="-11"
     inkscape:window-maximized="1" />
  <metadata
     id="metadata1047">
    <rdf:RDF>
      <cc:Work
         rdf:about="">
        <dc:format>image/svg+xml</dc:format>
        <dc:type
           rdf:resource="http://purl.org/dc/dcmitype/StillImage" />
        <dc:title />
      </cc:Work>
    </rdf:RDF>
  </metadata>
  <g
     inkscape:label="Layer 1"
     inkscape:groupmode="layer"
     id="layer1"
     transform="translate(174.43769,-125.56163)">
    <g
       id="g888">
      <g
         aria-label="labs"
         id="text957"
         style="font-style:normal;font-variant:normal;font-weight:normal;font-stretch:normal;font-size:646.311px;line-height:1.25;font-family:'DejaVu Sans Mono';-inkscape-font-specification:'DejaVu Sans Mono';letter-spacing:0px;word-spacing:0px;fill:#4d4d4d;fill-opacity:1;stroke:none;stroke-width:16.1578"
         transform="matrix(0.16662486,0,0,0.16662486,-11.414523,145.96726)">
        <path
           d="m -58.179897,382.30438 q -39.424969,0 -64.631093,-31.02292 -24.55982,-31.66924 -24.55982,-80.78888 V -97.904671 q 0,-10.987289 7.10942,-17.450399 7.10942,-7.10942 17.4504,-7.10942 10.98728,0 17.45039,7.10942 7.109423,6.46311 7.109423,17.450399 V 270.49258 q 0,27.79138 10.987286,45.24177 11.633598,17.4504 29.083994,17.4504 h 16.157775 q 9.694664,0 15.511463,7.10942 5.816799,6.46311 5.816799,17.4504 0,10.98728 -8.402043,18.0967 -7.755732,6.46311 -20.681951,6.46311 z"
           style="font-style:normal;font-variant:normal;font-weight:normal;font-stretch:normal;font-family:Comfortaa;-inkscape-font-specification:Comfortaa;fill:#4d4d4d;stroke:none;stroke-width:16.1578"
           id="path1703" />
        <path
           d="m 197.11167,25.540725 q 50.41226,0 91.12985,23.913506 41.3639,23.267195 64.6311,64.631099 23.9135,41.3639 23.9135,91.77616 v 151.88308 q 0,10.34097 -7.10942,17.45039 -7.10942,7.10942 -18.0967,7.10942 -10.98729,0 -18.09671,-6.46311 -7.10942,-7.10942 -7.10942,-18.0967 v -38.77866 q -22.62089,31.02292 -57.52168,49.11963 -34.90079,17.4504 -76.911,17.4504 -49.11964,0 -89.19092,-23.2672 -39.424969,-23.9135 -62.692164,-64.6311 -22.620884,-41.3639 -22.620884,-91.77615 0,-50.41226 23.267195,-91.77616 23.913506,-41.363904 64.631093,-64.631099 41.36391,-23.913506 91.77616,-23.913506 z m 0,314.753445 q 36.83973,0 66.57003,-17.4504 29.73031,-17.45039 46.53439,-47.82701 17.4504,-31.02293 17.4504,-69.15527 0,-38.13235 -17.4504,-68.50897 Q 293.41201,106.3296 263.6817,88.8792 233.9514,70.782493 197.11167,70.782493 q -36.83972,0 -67.21634,18.096707 -29.7303,17.4504 -47.180699,48.47332 -16.804086,30.37662 -16.804086,68.50897 0,38.13234 16.804086,69.15527 17.450399,30.37662 47.180699,47.82701 30.37662,17.4504 67.21634,17.4504 z"
           style="font-style:normal;font-variant:normal;font-weight:normal;font-stretch:normal;font-family:Comfortaa;-inkscape-font-specification:Comfortaa;fill:#4d4d4d;stroke:none;stroke-width:16.1578"
           id="path1705" />
        <path
           d="m 658.57649,25.540725 q 49.11964,0 88.54461,23.913506 40.07128,23.267195 62.69216,64.631099 23.2672,40.71759 23.2672,91.12985 0,50.41225 -23.91351,91.77615 -23.26719,41.36391 -64.6311,65.27741 -40.71759,23.2672 -91.12984,23.2672 -50.41226,0 -91.77616,-23.2672 -40.71759,-23.9135 -64.6311,-65.27741 -23.26719,-41.3639 -23.26719,-91.77615 V 53.332096 q 0,-3.877865 0.64631,-5.816798 V -97.25836 q 0,-10.98729 6.46311,-18.09671 7.10942,-7.10942 18.0967,-7.10942 10.98729,0 18.09671,7.10942 7.10942,7.10942 7.10942,18.09671 V 92.110755 q 22.62089,-31.022927 57.52168,-48.473323 34.90079,-18.096707 76.911,-18.096707 z m -5.17048,314.753445 q 36.83972,0 66.57003,-17.4504 30.37661,-18.0967 47.1807,-48.47332 17.45039,-31.02293 17.45039,-69.15527 0,-38.13235 -17.45039,-68.50897 -16.80409,-31.02292 -47.1807,-48.473321 -29.73031,-17.450396 -66.57003,-17.450396 -51.05857,0 -87.25198,32.315547 -35.54711,32.31555 -42.01022,82.72781 0,1.93893 -0.64631,3.23155 -0.64631,5.17049 -0.64631,16.15778 0,38.13234 16.80409,69.15527 17.45039,30.37662 47.1807,48.47332 29.7303,17.4504 66.57003,17.4504 z"
           style="font-style:normal;font-variant:normal;font-weight:normal;font-stretch:normal;font-family:Comfortaa;-inkscape-font-specification:Comfortaa;fill:#4d4d4d;stroke:none;stroke-width:16.1578"
           id="path1707" />
        <path
           d="m 1054.1181,385.53594 q -40.0713,0 -76.91099,-13.57253 -36.83973,-13.57253 -59.46061,-38.13235 -6.46311,-7.75573 -6.46311,-14.86515 0,-10.98729 10.34097,-19.38933 7.75574,-5.8168 16.15778,-5.8168 10.98729,0 18.74302,9.04835 15.51146,18.09671 40.71759,27.79137 25.85245,9.69467 56.87535,9.69467 45.2418,0 67.8627,-15.51146 22.6209,-15.51147 23.2672,-40.7176 0,-23.26719 -22.6209,-38.77865 -22.6209,-15.51147 -71.7405,-23.2672 -63.33852,-10.34097 -95.00775,-35.5471 -31.02293,-25.85244 -31.02293,-62.04586 0,-47.180697 36.19341,-73.033136 36.83973,-25.852439 91.77617,-25.852439 42.6565,0 74.3258,14.865152 31.6692,14.218841 51.0585,40.07128 5.1705,8.402043 5.1705,14.865153 0,10.98729 -10.341,17.4504 -4.5241,3.23155 -12.2799,3.23155 -13.5725,0 -22.6209,-9.69466 -31.6692,-36.193418 -86.6056,-36.193418 -35.5471,0 -56.8754,14.865152 -21.32826,14.218842 -21.32826,36.193416 0,23.26719 20.03564,37.48604 20.03562,13.57253 71.09422,21.97457 69.1553,11.6336 98.8856,38.13235 29.7303,25.85243 29.7303,64.63109 0,29.73031 -18.0967,52.9975 -17.4504,23.2672 -49.1197,36.19342 -31.6692,12.92622 -71.7405,12.92622 z"
           style="font-style:normal;font-variant:normal;font-weight:normal;font-stretch:normal;font-family:Comfortaa;-inkscape-font-specification:Comfortaa;fill:#4d4d4d;stroke:none;stroke-width:16.1578"
           id="path1709" />
      </g>
      <path
         id="path959"
         d="m -99.57985,178.13447 h 28.523521 a 1.2344125,1.2344125 0 0 1 1.234412,1.23441 v 0.60824 a 1.2344125,1.2344125 0 0 1 -1.234412,1.23442 H -99.57985 a 1.2344125,1.2344125 0 0 1 -1.23441,-1.23442 v -0.60824 a 1.2344125,1.2344125 0 0 1 1.23441,-1.23441 z"
         style="fill:#4d4d4d;stroke-width:0.252832" />
      <path
         id="path961"
         d="m -83.734803,127.15912 v 28.99303 a 1.2344125,1.2344125 0 0 1 -1.234412,1.23442 h -0.69777 a 1.2344125,1.2344125 0 0 1 -1.234411,-1.23442 v -28.99303 a 1.2344125,1.2344125 0 0 1 1.234411,-1.23441 h 0.69777 a 1.2344125,1.2344125 0 0 1 1.234412,1.23441 z"
         style="fill:#ff5555;stroke-width:0.258419" />
      <path
         id="path963"
         d="m -161.41306,208.43394 v -38.15988 a 1.4107572,1.4107572 0 0 1 1.41076,-1.41075 h 1.78444 a 1.4107572,1.4107572 0 0 1 1.41075,1.41075 v 38.15988 a 1.4107572,1.4107572 0 0 1 -1.41075,1.41076 h -1.78444 a 1.4107572,1.4107572 0 0 1 -1.41076,-1.41076 z"
         style="fill:#ffcc00;stroke-width:0.355701" />
      <path
         id="path965"
         inkscape:transform-center-x="0.019706805"
         inkscape:transform-center-y="2.6562685"
         d="m -86.353827,178.78745 -13.391853,-21.1822 a 1.1301154,1.2335485 89.999993 0 1 1.065705,-1.69654 l 26.719201,-0.0341 a 1.1301154,1.2335485 89.999993 0 1 1.070862,1.69381 l -13.327347,21.21632 a 1.1301154,1.2335485 89.999993 0 1 -2.136568,0.003 z"
         style="fill:#4d4d4d;stroke-width:0.170419" />
      <path
         id="path967"
         d="m -127.97931,208.43394 v -38.15988 a 1.4107572,1.4107572 0 0 1 1.41076,-1.41075 h 1.78444 a 1.4107572,1.4107572 0 0 1 1.41075,1.41075 v 38.15988 a 1.4107572,1.4107572 0 0 1 -1.41075,1.41076 h -1.78444 a 1.4107572,1.4107572 0 0 1 -1.41076,-1.41076 z"
         style="fill:#ffcc00;stroke-width:0.355701" />
      <path
         id="path969"
         d="m -83.734803,180.963 v 27.64728 a 1.2344125,1.2344125 0 0 1 -1.234412,1.23442 h -0.69777 a 1.2344125,1.2344125 0 0 1 -1.234411,-1.23442 V 180.963 a 1.2344125,1.2344125 0 0 1 1.234411,-1.23441 h 0.69777 a 1.2344125,1.2344125 0 0 1 1.234412,1.23441 z"
         style="fill:#4d4d4d;stroke-width:0.252832" />
      <path
         id="path971"
         d="m -144.70762,165.49533 v -38.15988 a 1.4107572,1.4107572 0 0 1 1.41076,-1.41075 h 1.78444 a 1.4107572,1.4107572 0 0 1 1.41076,1.41075 v 38.15988 a 1.4107572,1.4107572 0 0 1 -1.41076,1.41075 h -1.78444 a 1.4107572,1.4107572 0 0 1 -1.41076,-1.41075 z"
         style="fill:#4d4d4d;stroke-width:0.355701" />
      <path
         id="path973"
         inkscape:transform-center-x="-0.060024196"
         inkscape:transform-center-y="-6.5955219"
         d="m -139.87159,141.02284 29.11209,49.05958 a 2.8111722,2.8929646 89.999975 0 1 -2.50774,4.21544 l -58.27908,-0.0308 a 2.8111722,2.8929646 89.999975 0 1 -2.50301,-4.21807 l 29.16698,-49.02879 a 2.8111722,2.8929646 89.999975 0 1 5.01076,0.003 z"
         style="fill:#4d4d4d;stroke-width:0.411618" />
      <g
         aria-label="D"
         transform="matrix(0.16903149,0,0,0.1642525,-11.414523,145.96726)"
         id="text977"
         style="font-style:normal;font-variant:normal;font-weight:bold;font-stretch:normal;font-size:66.0884px;line-height:1.25;font-family:Comfortaa;-inkscape-font-specification:'Comfortaa Bold';letter-spacing:0px;word-spacing:0px;fill:#000000;fill-opacity:1;stroke:#ffffff;stroke-width:8.51535;stroke-miterlimit:4;stroke-dasharray:none;stroke-opacity:1">
        <path
           d="m -450.01047,140.48901 q -1.45395,0 -2.44527,-0.99132 -0.99133,-0.99133 -0.99133,-2.44527 V 92.310569 q 0,-1.520033 0.99133,-2.445271 0.99132,-0.991326 2.44527,-0.991326 h 11.962 q 7.46799,0 13.28377,3.30442 5.81578,3.30442 9.05411,9.186288 3.23833,5.81578 3.23833,13.28377 0,7.46799 -3.23833,13.34986 -3.23833,5.88186 -9.05411,9.18628 -5.81578,3.30442 -13.28377,3.30442 z m 11.962,-6.08013 q 5.48534,0 9.78108,-2.51136 4.36184,-2.51136 6.74102,-7.00537 2.44527,-4.5601 2.44527,-10.2437 0,-5.6836 -2.44527,-10.17762 -2.37918,-4.494007 -6.74102,-7.005366 -4.29574,-2.511359 -9.78108,-2.511359 h -8.5254 v 39.454775 z"
           style="font-style:normal;font-variant:normal;font-weight:bold;font-stretch:normal;font-size:66.0884px;font-family:Comfortaa;-inkscape-font-specification:'Comfortaa Bold';fill:#ffffff;stroke:#ffffff;stroke-width:8.51535;stroke-miterlimit:4;stroke-dasharray:none;stroke-opacity:1"
           id="path1697" />
      </g>
      <g
         aria-label="+"
         transform="matrix(0.16903149,0,0,0.1642525,-11.414523,145.96726)"
         id="text981"
         style="font-style:normal;font-variant:normal;font-weight:bold;font-stretch:normal;font-size:96.1289px;line-height:1.25;font-family:Comfortaa;-inkscape-font-specification:'Comfortaa Bold';letter-spacing:0px;word-spacing:0px;fill:#ff5555;fill-opacity:1;stroke:none;stroke-width:3.19344">
        <path
           d="m -386.61402,41.113247 q -2.11484,0 -3.55677,-1.345804 -1.3458,-1.441934 -1.3458,-3.556769 V 23.329401 h -12.88128 q -2.11483,0 -3.55677,-1.441933 -1.3458,-1.441934 -1.3458,-3.55677 0,-2.114835 1.3458,-3.46064 1.44194,-1.441933 3.55677,-1.441933 h 12.88128 V 0.54685219 q 0,-2.01870689 1.44193,-3.46064039 1.53806,-1.4419334 3.46064,-1.4419334 2.11484,0 3.46064,1.4419334 1.44193,1.3458046 1.44193,3.46064039 V 13.428125 h 12.88128 q 2.0187,0 3.46064,1.441933 1.53806,1.441934 1.53806,3.556769 0,2.018707 -1.53806,3.460641 -1.44194,1.441933 -3.46064,1.441933 h -12.88128 v 12.881273 q 0,2.114835 -1.44193,3.556769 -1.3458,1.345804 -3.46064,1.345804 z"
           style="font-style:normal;font-variant:normal;font-weight:bold;font-stretch:normal;font-size:96.1289px;font-family:Comfortaa;-inkscape-font-specification:'Comfortaa Bold';fill:#ff5555;fill-opacity:1;stroke-width:3.19344"
           id="path1691" />
      </g>
      <g
         aria-label="µ"
         transform="matrix(0.16903149,0,0,0.1642525,-11.414523,145.96726)"
         id="text985"
         style="font-style:normal;font-weight:normal;font-size:156.209px;line-height:1.25;font-family:sans-serif;letter-spacing:0px;word-spacing:0px;fill:#000000;fill-opacity:1;stroke:#ffffff;stroke-width:8.51535;stroke-miterlimit:4;stroke-dasharray:none;stroke-opacity:1">
        <path
           d="m -729.32644,88.873746 q 2.65556,0 4.06144,1.718299 1.40588,1.56209 0.93725,4.217643 l -14.68364,73.418232 q -0.62484,2.65555 -2.65556,4.37385 -2.03071,1.7183 -4.68627,1.7183 -2.65555,0 -4.06143,-1.7183 -1.24967,-1.7183 -0.62484,-4.37385 l 1.24967,-6.24836 q -5.93594,6.24836 -13.74639,9.84116 -7.81045,3.4366 -16.08952,3.4366 -9.06013,0 -15.4647,-3.90522 -6.40456,-3.90523 -9.52874,-10.93463 l -8.90392,44.36335 q -0.46862,2.65556 -2.65555,4.37386 -2.03072,1.71829 -4.68627,1.71829 -2.65555,0 -3.90523,-1.71829 -1.24967,-1.7183 -0.78104,-4.37386 l 22.02547,-109.971132 q 0.46863,-2.655553 2.34313,-4.217643 2.03072,-1.718299 4.68627,-1.718299 2.65556,0 4.06144,1.718299 1.40588,1.56209 0.93725,4.217643 l -8.12287,40.614342 q -1.7183,8.12287 0.62484,14.68364 2.34313,6.40457 7.81045,10.15359 5.62352,3.59281 13.74639,3.59281 11.87189,0 20.7758,-6.40457 9.06012,-6.40457 11.09084,-16.40195 l 9.21633,-46.237862 q 0.46863,-2.655553 2.34313,-4.217643 2.03072,-1.718299 4.68627,-1.718299 z"
           style="font-style:italic;font-variant:normal;font-weight:normal;font-stretch:normal;font-size:156.209px;font-family:Comfortaa;-inkscape-font-specification:'Comfortaa Italic';fill:#ffffff;stroke:#ffffff;stroke-width:8.51535;stroke-miterlimit:4;stroke-dasharray:none;stroke-opacity:1"
           id="path1677" />
      </g>
      <g
         aria-label="-"
         transform="matrix(0.19125635,0,0,0.14516561,-11.414523,145.96726)"
         id="text989"
         style="font-style:normal;font-variant:normal;font-weight:bold;font-stretch:normal;font-size:124.014px;line-height:1.25;font-family:Comfortaa;-inkscape-font-specification:'Comfortaa Bold';letter-spacing:0px;word-spacing:0px;fill:#4d4d4d;fill-opacity:1;stroke:none;stroke-width:5.94897">
        <path
           d="m -355.41089,283.23465 q -2.7283,0 -4.58851,-1.7362 -1.7362,-1.73619 -1.7362,-4.4645 0,-2.72831 1.7362,-4.46451 1.86021,-1.86021 4.58851,-1.86021 h 27.65513 q 2.7283,0 4.4645,1.86021 1.7362,1.7362 1.7362,4.46451 0,2.72831 -1.7362,4.4645 -1.7362,1.7362 -4.4645,1.7362 z"
           style="font-style:normal;font-variant:normal;font-weight:bold;font-stretch:normal;font-size:124.014px;font-family:Comfortaa;-inkscape-font-specification:'Comfortaa Bold';fill:#4d4d4d;fill-opacity:1;stroke-width:5.94897"
           id="path1694" />
      </g>
      <g
         aria-label="+"
         transform="matrix(0.16903149,0,0,0.1642525,-11.414523,145.96726)"
         id="text993"
         style="font-style:normal;font-variant:normal;font-weight:bold;font-stretch:normal;font-size:96.1289px;line-height:1.25;font-family:Comfortaa;-inkscape-font-specification:'Comfortaa Bold';letter-spacing:0px;word-spacing:0px;fill:#ffffff;fill-opacity:1;stroke:none;stroke-width:3.19344">
        <path
           d="m -873.82297,280.69162 q -2.11484,0 -3.55677,-1.3458 -1.34581,-1.44193 -1.34581,-3.55677 v -12.88127 h -12.88127 q -2.11484,0 -3.55677,-1.44194 -1.3458,-1.44193 -1.3458,-3.55676 0,-2.11484 1.3458,-3.46065 1.44193,-1.44193 3.55677,-1.44193 h 12.88127 v -12.88127 q 0,-2.01871 1.44194,-3.46064 1.53806,-1.44193 3.46064,-1.44193 2.11483,0 3.46064,1.44193 1.44193,1.3458 1.44193,3.46064 v 12.88127 h 12.88127 q 2.01871,0 3.46064,1.44193 1.53806,1.44194 1.53806,3.55677 0,2.01871 -1.53806,3.46064 -1.44193,1.44194 -3.46064,1.44194 h -12.88127 v 12.88127 q 0,2.11484 -1.44193,3.55677 -1.34581,1.3458 -3.46064,1.3458 z"
           style="font-style:normal;font-variant:normal;font-weight:bold;font-stretch:normal;font-size:96.1289px;font-family:Comfortaa;-inkscape-font-specification:'Comfortaa Bold';fill:#ffffff;fill-opacity:1;stroke-width:3.19344"
           id="path1680" />
      </g>
      <g
         aria-label="-"
         transform="matrix(0.19125635,0,0,0.14516561,-11.414523,145.96726)"
         id="text997"
         style="font-style:normal;font-variant:normal;font-weight:bold;font-stretch:normal;font-size:124.014px;line-height:1.25;font-family:Comfortaa;-inkscape-font-specification:'Comfortaa Bold';letter-spacing:0px;word-spacing:0px;fill:#ffffff;fill-opacity:1;stroke:none;stroke-width:5.94897">
        <path
           d="m -611.19308,298.6189 q -2.72831,0 -4.58852,-1.7362 -1.7362,-1.7362 -1.7362,-4.4645 0,-2.72831 1.7362,-4.46451 1.86021,-1.86021 4.58852,-1.86021 h 27.65512 q 2.72831,0 4.4645,1.86021 1.7362,1.7362 1.7362,4.46451 0,2.7283 -1.7362,4.4645 -1.73619,1.7362 -4.4645,1.7362 z"
           style="font-style:normal;font-variant:normal;font-weight:bold;font-stretch:normal;font-size:124.014px;font-family:Comfortaa;-inkscape-font-specification:'Comfortaa Bold';fill:#ffffff;fill-opacity:1;stroke-width:5.94897"
           id="path1683" />
      </g>
    </g>
  </g>
</svg>
